<?xml version="1.0" encoding="iso-8859-1"?>
<!-- Generator: Adobe Illustrator 19.0.0, SVG Export Plug-In . SVG Version: 6.00 Build 0)  -->
<svg version="1.1" id="Layer_1" xmlns="http://www.w3.org/2000/svg" xmlns:xlink="http://www.w3.org/1999/xlink" x="0px" y="0px"
	 viewBox="0 0 142.726 55.278" style="enable-background:new 0 0 142.726 55.278;" xml:space="preserve">
<g id="XMLID_26_">
	<g id="XMLID_254_">
		<path id="XMLID_284_" style="fill:#FFFFFF;" d="M51.882,21.794l1.057-2.775c0.704,0.511,1.489,0.903,2.352,1.176
			c0.863,0.273,1.744,0.41,2.643,0.41c0.687,0,1.216-0.106,1.586-0.318c0.37-0.212,0.555-0.519,0.555-0.924
			c0-0.335-0.132-0.599-0.396-0.793c-0.264-0.193-0.731-0.36-1.401-0.502l-2.194-0.502c-1.286-0.281-2.233-0.731-2.841-1.348
			c-0.608-0.617-0.912-1.436-0.912-2.458c0-0.828,0.242-1.568,0.727-2.22c0.484-0.651,1.158-1.158,2.022-1.519
			s1.859-0.542,2.986-0.542c0.951,0,1.885,0.145,2.801,0.436c0.916,0.291,1.735,0.701,2.457,1.229l-1.11,2.669
			c-0.687-0.475-1.387-0.836-2.101-1.083c-0.714-0.246-1.405-0.37-2.075-0.37c-0.652,0-1.163,0.115-1.533,0.343
			c-0.37,0.229-0.555,0.546-0.555,0.951c0,0.3,0.11,0.541,0.33,0.726c0.22,0.185,0.612,0.34,1.176,0.463l2.246,0.502
			c1.374,0.317,2.369,0.793,2.986,1.427c0.616,0.635,0.925,1.48,0.925,2.537c0,1.268-0.511,2.273-1.533,3.013
			c-1.022,0.74-2.422,1.11-4.202,1.11C55.344,23.433,53.345,22.886,51.882,21.794z"/>
		<path id="XMLID_282_" style="fill:#FFFFFF;" d="M67.801,21.582c-1.242-1.233-1.863-2.915-1.863-5.047
			c0-1.391,0.299-2.62,0.898-3.686c0.599-1.065,1.44-1.894,2.524-2.484c1.084-0.59,2.339-0.885,3.766-0.885
			c0.969,0,1.911,0.15,2.828,0.449c0.916,0.3,1.647,0.705,2.193,1.216l-1.057,2.775c-0.529-0.423-1.11-0.753-1.744-0.991
			s-1.251-0.357-1.85-0.357c-1.092,0-1.942,0.33-2.55,0.991c-0.608,0.661-0.912,1.625-0.912,2.894c0,1.286,0.299,2.26,0.898,2.92
			c0.599,0.661,1.454,0.991,2.563,0.991c0.599,0,1.216-0.119,1.85-0.357c0.634-0.238,1.215-0.568,1.744-0.991l1.057,2.775
			c-0.581,0.511-1.339,0.912-2.273,1.203c-0.934,0.291-1.912,0.436-2.933,0.436C70.756,23.433,69.043,22.816,67.801,21.582z"/>
		<path id="XMLID_279_" style="fill:#FFFFFF;" d="M83.265,22.587c-1.066-0.563-1.885-1.374-2.458-2.431
			c-0.573-1.057-0.859-2.29-0.859-3.7c0-1.409,0.286-2.643,0.859-3.7c0.572-1.057,1.392-1.867,2.458-2.431
			c1.066-0.564,2.312-0.846,3.739-0.846c1.409,0,2.643,0.282,3.7,0.846c1.057,0.564,1.872,1.374,2.445,2.431
			c0.572,1.057,0.859,2.29,0.859,3.7c0,1.409-0.287,2.643-0.859,3.7c-0.573,1.057-1.387,1.867-2.445,2.431
			c-1.057,0.565-2.29,0.846-3.7,0.846C85.578,23.433,84.331,23.151,83.265,22.587z M89.264,19.416c0.52-0.652,0.78-1.639,0.78-2.96
			c0-1.303-0.26-2.286-0.78-2.946c-0.52-0.661-1.273-0.991-2.259-0.991c-1.004,0-1.771,0.33-2.299,0.991
			c-0.529,0.66-0.793,1.643-0.793,2.946c0,2.625,1.031,3.938,3.092,3.938C87.991,20.394,88.744,20.067,89.264,19.416z"/>
		<path id="XMLID_277_" style="fill:#FFFFFF;" d="M105.82,9.77l-0.027,3.647c-0.652-0.299-1.304-0.449-1.955-0.449
			c-1.057,0-1.863,0.286-2.418,0.859c-0.555,0.573-0.832,1.37-0.832,2.392v7.003h-3.99v-9.566c0-1.427-0.071-2.704-0.212-3.832
			h3.753l0.264,2.299c0.334-0.846,0.859-1.493,1.572-1.943c0.714-0.449,1.519-0.674,2.418-0.674
			C104.957,9.506,105.432,9.594,105.82,9.77z"/>
		<path id="XMLID_274_" style="fill:#FFFFFF;" d="M119.746,16.853h-8.827c0.07,1.251,0.397,2.162,0.978,2.735
			c0.581,0.573,1.444,0.859,2.59,0.859c0.687,0,1.374-0.115,2.061-0.343c0.687-0.229,1.321-0.564,1.903-1.004l1.057,2.695
			c-0.634,0.511-1.423,0.912-2.365,1.203c-0.943,0.291-1.889,0.436-2.841,0.436c-2.255,0-4.026-0.621-5.312-1.863
			c-1.286-1.242-1.929-2.938-1.929-5.087c0-1.356,0.277-2.567,0.832-3.634c0.555-1.065,1.335-1.894,2.339-2.484
			c1.004-0.59,2.14-0.885,3.409-0.885c1.885,0,3.374,0.612,4.466,1.837c1.092,1.225,1.638,2.876,1.638,4.955V16.853z
			 M111.911,12.941c-0.467,0.441-0.771,1.083-0.912,1.929h5.312c-0.211-1.726-1.066-2.59-2.563-2.59
			C112.99,12.28,112.377,12.501,111.911,12.941z"/>
		<path id="XMLID_271_" style="fill:#FFFFFF;" d="M65.967,31.779v13.398H62.03v-1.982c-0.406,0.687-0.978,1.225-1.718,1.612
			c-0.74,0.387-1.577,0.581-2.51,0.581c-1.163,0-2.189-0.281-3.079-0.846c-0.89-0.563-1.585-1.37-2.087-2.418
			c-0.502-1.048-0.753-2.259-0.753-3.634c0-1.374,0.251-2.598,0.753-3.673s1.202-1.907,2.101-2.498
			c0.899-0.59,1.92-0.885,3.066-0.885c0.934,0,1.771,0.203,2.51,0.608c0.74,0.405,1.312,0.951,1.718,1.638v-1.902H65.967z
			 M61.237,41.345c0.529-0.669,0.793-1.639,0.793-2.907s-0.264-2.241-0.793-2.92c-0.528-0.678-1.286-1.018-2.273-1.018
			c-0.987,0-1.753,0.353-2.299,1.058c-0.546,0.704-0.819,1.682-0.819,2.933c0,1.251,0.269,2.207,0.806,2.867
			c0.537,0.661,1.308,0.991,2.312,0.991C59.951,42.349,60.709,42.014,61.237,41.345z"/>
		<path id="XMLID_269_" style="fill:#FFFFFF;" d="M74.862,43.749l1.057-2.775c0.704,0.511,1.489,0.903,2.352,1.176
			c0.863,0.273,1.744,0.41,2.642,0.41c0.687,0,1.216-0.106,1.585-0.318c0.37-0.212,0.555-0.519,0.555-0.924
			c0-0.335-0.132-0.599-0.397-0.793c-0.264-0.193-0.731-0.36-1.401-0.502l-2.193-0.502c-1.286-0.281-2.233-0.731-2.841-1.348
			c-0.608-0.617-0.912-1.436-0.912-2.458c0-0.828,0.242-1.568,0.726-2.22c0.484-0.651,1.158-1.158,2.022-1.519
			c0.863-0.361,1.858-0.542,2.986-0.542c0.951,0,1.885,0.145,2.801,0.436c0.916,0.291,1.735,0.701,2.458,1.229l-1.11,2.669
			c-0.687-0.475-1.387-0.836-2.101-1.083c-0.714-0.246-1.405-0.37-2.074-0.37c-0.652,0-1.163,0.115-1.533,0.343
			c-0.37,0.229-0.555,0.546-0.555,0.951c0,0.3,0.11,0.541,0.33,0.726c0.22,0.185,0.612,0.34,1.176,0.463l2.246,0.502
			c1.374,0.317,2.369,0.793,2.986,1.427c0.617,0.635,0.925,1.48,0.925,2.537c0,1.268-0.511,2.273-1.533,3.013
			c-1.022,0.74-2.423,1.11-4.202,1.11C78.324,45.388,76.324,44.842,74.862,43.749z"/>
		<path id="XMLID_267_" style="fill:#FFFFFF;" d="M90.782,43.538c-1.242-1.233-1.863-2.915-1.863-5.047
			c0-1.391,0.299-2.62,0.898-3.686c0.599-1.065,1.441-1.894,2.524-2.484c1.083-0.59,2.339-0.885,3.765-0.885
			c0.969,0,1.912,0.15,2.828,0.449c0.916,0.3,1.647,0.705,2.194,1.216l-1.058,2.775c-0.528-0.423-1.11-0.753-1.744-0.991
			c-0.634-0.238-1.251-0.357-1.85-0.357c-1.092,0-1.942,0.33-2.55,0.991c-0.608,0.661-0.912,1.625-0.912,2.894
			c0,1.286,0.299,2.26,0.899,2.92c0.598,0.661,1.454,0.991,2.563,0.991c0.599,0,1.216-0.119,1.85-0.357
			c0.635-0.238,1.216-0.568,1.744-0.991l1.058,2.775c-0.582,0.511-1.34,0.912-2.273,1.203c-0.934,0.291-1.912,0.436-2.933,0.436
			C93.736,45.388,92.024,44.771,90.782,43.538z"/>
		<path id="XMLID_264_" style="fill:#FFFFFF;" d="M106.246,44.542c-1.066-0.563-1.886-1.374-2.458-2.431
			c-0.573-1.057-0.859-2.29-0.859-3.7c0-1.409,0.286-2.643,0.859-3.7c0.572-1.057,1.392-1.867,2.458-2.431
			c1.065-0.564,2.312-0.846,3.739-0.846c1.409,0,2.643,0.282,3.7,0.846c1.057,0.564,1.872,1.374,2.444,2.431
			c0.573,1.057,0.859,2.29,0.859,3.7c0,1.409-0.286,2.643-0.859,3.7c-0.573,1.057-1.387,1.867-2.444,2.431
			c-1.057,0.565-2.29,0.846-3.7,0.846C108.558,45.388,107.311,45.106,106.246,44.542z M112.244,41.371
			c0.52-0.652,0.78-1.639,0.78-2.96c0-1.303-0.26-2.286-0.78-2.946c-0.519-0.661-1.273-0.991-2.259-0.991
			c-1.004,0-1.771,0.33-2.299,0.991c-0.528,0.66-0.793,1.643-0.793,2.946c0,2.625,1.031,3.938,3.092,3.938
			C110.971,42.349,111.725,42.023,112.244,41.371z"/>
		<path id="XMLID_262_" style="fill:#FFFFFF;" d="M128.8,31.725l-0.026,3.647c-0.652-0.299-1.304-0.449-1.956-0.449
			c-1.057,0-1.863,0.286-2.418,0.859s-0.833,1.37-0.833,2.392v7.003h-3.99V35.61c0-1.427-0.071-2.704-0.211-3.832h3.753l0.264,2.299
			c0.334-0.846,0.859-1.493,1.572-1.943c0.714-0.449,1.52-0.674,2.419-0.674C127.937,31.461,128.412,31.549,128.8,31.725z"/>
		<path id="XMLID_259_" style="fill:#FFFFFF;" d="M142.726,38.808H133.9c0.07,1.251,0.397,2.162,0.978,2.735
			c0.581,0.573,1.444,0.859,2.59,0.859c0.687,0,1.374-0.115,2.062-0.343c0.687-0.229,1.321-0.564,1.902-1.004l1.057,2.695
			c-0.634,0.511-1.422,0.912-2.365,1.203c-0.943,0.291-1.889,0.436-2.841,0.436c-2.255,0-4.026-0.621-5.312-1.863
			c-1.287-1.242-1.929-2.938-1.929-5.087c0-1.356,0.277-2.567,0.833-3.634c0.555-1.065,1.334-1.894,2.338-2.484
			c1.004-0.59,2.141-0.885,3.409-0.885c1.885,0,3.374,0.612,4.466,1.837c1.092,1.225,1.638,2.876,1.638,4.955V38.808z
			 M134.891,34.897c-0.467,0.441-0.771,1.083-0.912,1.929h5.312c-0.212-1.726-1.066-2.59-2.564-2.59
			C135.97,34.236,135.358,34.456,134.891,34.897z"/>
		<g id="XMLID_255_" style="display:none;">
			<path id="XMLID_258_" style="display:inline;fill:#FFFFFF;" d="M29.558,13.725l-3.186,4.134
				c-0.645-0.503-3.735-2.755-7.535-2.755c-6.045,0-3.586,4.311-3.586,4.311s-4.873-0.339-4.873-4.327
				c0-3.761,3.939-5.256,8.103-5.256C25.25,9.833,29.365,13.548,29.558,13.725"/>
			<path id="XMLID_257_" style="display:inline;fill:#FFFFFF;" d="M26.95,40.295c0.077,3.761-3.837,4.829-7.993,4.913
				c-6.049,0.122-11.5-3.062-12.493-3.846l3.26-4.224c0.533,0.4,4.841,2.89,8.765,2.808c6.045-0.124,3.496-3.874,3.496-3.874
				S26.873,36.618,26.95,40.295"/>
			<path id="XMLID_256_" style="display:inline;fill:#FFFFFF;" d="M17.258,55.278c-8.599-0.013-14.295-3.317-17.197-5.626
				l2.886-3.751c2.781,1.987,7.712,4.718,14.655,4.724c12.919-0.009,15.516-5.451,15.427-10.315
				c-0.122-6.588-7.177-8.109-14.587-9.818C9.199,28.376-0.267,26.032,0.006,14.936c0.084-3.6,1.593-7.169,4.11-9.803
				C7.336,1.755,12.11-0.004,17.987,0c9.14,0.003,14.987,3.923,17.497,6.047l-2.483,3.218c-2.889-2.186-7.33-5.097-13.75-5.094
				h-0.416c-9.073,0-14.146,4.047-14.29,11.561c-0.123,6.628,7.276,8.563,14.486,10.333c0.146,0.034,0.288,0.072,0.434,0.108
				c8.868,2.19,18.124,4.302,18.353,13.596C37.958,45.475,35.493,55.25,17.258,55.278"/>
		</g>
	</g>
</g>
</svg>
